<?xml version="1.0" encoding="utf-8"?>
<!-- Generator: Adobe Illustrator 16.0.0, SVG Export Plug-In . SVG Version: 6.00 Build 0)  -->
<!DOCTYPE svg PUBLIC "-//W3C//DTD SVG 1.1//EN" "http://www.w3.org/Graphics/SVG/1.1/DTD/svg11.dtd">
<svg version="1.1" id="图层_1" xmlns="http://www.w3.org/2000/svg" xmlns:xlink="http://www.w3.org/1999/xlink" x="0px" y="0px"
	 width="170px" height="90px" viewBox="0 0 170 90" enable-background="new 0 0 170 90" xml:space="preserve">
<path fill-rule="evenodd" clip-rule="evenodd" fill="#CFCFCF" d="M167.5,56.529v22.779c0,4.524-3.672,8.191-8.2,8.191h-22.55
	c1.132,0,2.05-0.918,2.05-2.048c0-1.131-0.918-2.048-2.05-2.048s-2.051,0.917-2.051,2.048c0,1.13,0.919,2.048,2.051,2.048H11.7
	c-4.529,0-8.2-3.667-8.2-8.191V56.785c6.793,0,12.299-5.5,12.299-12.285c0-6.786-5.506-12.286-12.299-12.286V9.691
	C3.5,5.167,7.171,1.5,11.7,1.5h125.05c-1.132,0-2.051,0.917-2.051,2.047c0,1.131,0.919,2.047,2.051,2.047s2.05-0.917,2.05-2.047
	c0-1.13-0.918-2.047-2.05-2.047h22.55c4.528,0,8.2,3.667,8.2,8.191v22.267c-6.794,0-12.3,5.501-12.3,12.286
	C155.2,51.029,160.706,56.529,167.5,56.529z M136.75,9.691c-1.132,0-2.051,0.917-2.051,2.047s0.919,2.047,2.051,2.047
	s2.05-0.917,2.05-2.047S137.882,9.691,136.75,9.691z M136.75,17.881c-1.132,0-2.051,0.917-2.051,2.048s0.919,2.047,2.051,2.047
	s2.05-0.917,2.05-2.047S137.882,17.881,136.75,17.881z M136.75,26.071c-1.132,0-2.051,0.917-2.051,2.048
	c0,1.13,0.919,2.048,2.051,2.048s2.05-0.917,2.05-2.048C138.8,26.988,137.882,26.071,136.75,26.071z M136.75,34.262
	c-1.132,0-2.051,0.917-2.051,2.047c0,1.131,0.919,2.048,2.051,2.048s2.05-0.917,2.05-2.048
	C138.8,35.179,137.882,34.262,136.75,34.262z M136.75,42.453c-1.132,0-2.051,0.917-2.051,2.047s0.919,2.047,2.051,2.047
	s2.05-0.916,2.05-2.047S137.882,42.453,136.75,42.453z M136.75,50.643c-1.132,0-2.051,0.917-2.051,2.048
	c0,1.13,0.919,2.048,2.051,2.048s2.05-0.918,2.05-2.048C138.8,51.56,137.882,50.643,136.75,50.643z M136.75,58.833
	c-1.132,0-2.051,0.917-2.051,2.048s0.919,2.047,2.051,2.047s2.05-0.916,2.05-2.047S137.882,58.833,136.75,58.833z M136.75,67.023
	c-1.132,0-2.051,0.917-2.051,2.048s0.919,2.048,2.051,2.048s2.05-0.917,2.05-2.048S137.882,67.023,136.75,67.023z M136.75,75.214
	c-1.132,0-2.051,0.917-2.051,2.048s0.919,2.047,2.051,2.047s2.05-0.916,2.05-2.047S137.882,75.214,136.75,75.214z"/>
</svg>
