<?xml version="1.0" encoding="utf-8"?>
<!-- Generator: Adobe Illustrator 16.0.0, SVG Export Plug-In . SVG Version: 6.00 Build 0)  -->
<!DOCTYPE svg PUBLIC "-//W3C//DTD SVG 1.1//EN" "http://www.w3.org/Graphics/SVG/1.1/DTD/svg11.dtd">
<svg version="1.1" xmlns="http://www.w3.org/2000/svg" xmlns:xlink="http://www.w3.org/1999/xlink" x="0px" y="0px" width="40px"
	 height="40px" viewBox="0 0 40 40" enable-background="new 0 0 40 40" xml:space="preserve">
<g id="图层_1">
	<g>
		<path fill-rule="evenodd" clip-rule="evenodd" fill="#FFFFFF" d="M0,4.5h14l2,18h18l2-14h4l-2,18H12l-2-18H0V4.5z"/>
		<path fill-rule="evenodd" clip-rule="evenodd" fill="#FFFFFF" d="M15,30.5c1.657,0,3,1.343,3,3c0,1.656-1.343,3-3,3s-3-1.344-3-3
			C12,31.843,13.343,30.5,15,30.5z"/>
		<path fill-rule="evenodd" clip-rule="evenodd" fill="#FFFFFF" d="M35,30.5c1.656,0,3,1.343,3,3c0,1.656-1.344,3-3,3s-3-1.344-3-3
			C32,31.843,33.344,30.5,35,30.5z"/>
	</g>
	<g>
		<path fill-rule="evenodd" clip-rule="evenodd" fill="#FFFFFF" d="M21.5,6.5h5v5h-5V6.5z"/>
	</g>
	<g>
		<path fill-rule="evenodd" clip-rule="evenodd" fill="#FFFFFF" d="M27.5,15.5h5v5h-5V15.5z"/>
	</g>
	<g>
		<path fill-rule="evenodd" clip-rule="evenodd" fill="#FFFFFF" d="M24.5,1.5h5v5h-5V1.5z"/>
	</g>
</g>
<g id="图层_2">
</g>
<g id="图层_3">
</g>
</svg>
