<?xml version="1.0" encoding="utf-8"?>
<!-- Generator: Adobe Illustrator 16.0.0, SVG Export Plug-In . SVG Version: 6.00 Build 0)  -->
<!DOCTYPE svg PUBLIC "-//W3C//DTD SVG 1.1//EN" "http://www.w3.org/Graphics/SVG/1.1/DTD/svg11.dtd">
<svg version="1.1" id="图层_1" xmlns="http://www.w3.org/2000/svg" xmlns:xlink="http://www.w3.org/1999/xlink" x="0px" y="0px"
	 width="110px" height="30px" viewBox="0 0 110 30" enable-background="new 0 0 110 30" xml:space="preserve">
<path fill-rule="evenodd" clip-rule="evenodd" fill="none" stroke="#F8C651" stroke-miterlimit="10" d="M109.335,23.976h0.685v1.381
	c-0.408,0-0.859,0-1.369,0c-1.512,0-2.738,1.237-2.738,2.763c0,0.506,0,0.974,0,1.381H3.607c0-0.407,0-0.875,0-1.381
	c0-1.525-1.226-2.763-2.738-2.763c-0.437,0-0.911,0-1.369,0v-1.381h0.685c0.378,0,0.685-0.309,0.685-0.689
	c0-0.382-0.306-0.691-0.685-0.691H-0.5v-1.381h0.685c0.378,0,0.685-0.309,0.685-0.69c0-0.381-0.306-0.69-0.685-0.69H-0.5v-1.381
	h0.685c0.378,0,0.685-0.309,0.685-0.69c0-0.381-0.306-0.69-0.685-0.69H-0.5V15.69h0.685c0.378,0,0.685-0.31,0.685-0.69
	c0-0.382-0.306-0.69-0.685-0.69H-0.5v-1.381h0.685c0.378,0,0.685-0.31,0.685-0.69c0-0.382-0.306-0.69-0.685-0.69H-0.5v-1.381h0.685
	c0.378,0,0.685-0.31,0.685-0.69c0-0.382-0.306-0.69-0.685-0.69H-0.5V7.5h0.996c0.378,0,0.996,0.382,0.996,0c0-0.381-0.617-1-0.996-1
	H-0.5v-2c0.409,0,0.486,0,0.996,0c1.512,0,3.111-1.094,3.111-2.619c0-0.506,0-0.974,0-1.381h102.305c0,0.407,0,0.875,0,1.381
	c0,1.525,1.227,2.762,2.738,2.762c0.51,0,0.961,0,1.369,0v1.381h-0.685c-0.377,0-0.685,0.31-0.685,0.69
	c0,0.382,0.308,0.691,0.685,0.691h0.685v1.381h-0.685c-0.377,0-0.685,0.309-0.685,0.69c0,0.381,0.308,0.69,0.685,0.69h0.685v1.381
	h-0.685c-0.377,0-0.685,0.309-0.685,0.69c0,0.381,0.308,0.69,0.685,0.69h0.685v1.381h-0.685c-0.377,0-0.685,0.309-0.685,0.69
	c0,0.381,0.308,0.69,0.685,0.69h0.685v1.381h-0.685c-0.377,0-0.685,0.31-0.685,0.69c0,0.382,0.308,0.69,0.685,0.69h0.685v1.381
	h-0.685c-0.377,0-0.685,0.31-0.685,0.69c0,0.382,0.308,0.69,0.685,0.69h0.685v1.381h-0.685c-0.377,0-0.685,0.31-0.685,0.691
	C108.65,23.667,108.958,23.976,109.335,23.976z"/>
</svg>
