<?xml version="1.0" encoding="utf-8"?>
<!-- Generator: Adobe Illustrator 16.0.0, SVG Export Plug-In . SVG Version: 6.00 Build 0)  -->
<!DOCTYPE svg PUBLIC "-//W3C//DTD SVG 1.1//EN" "http://www.w3.org/Graphics/SVG/1.1/DTD/svg11.dtd">
<svg version="1.1" id="图层_1" xmlns="http://www.w3.org/2000/svg" xmlns:xlink="http://www.w3.org/1999/xlink" x="0px" y="0px"
	 width="45px" height="45px" viewBox="0 0 45 45" enable-background="new 0 0 45 45" xml:space="preserve">
<path fill="#FFFDFD" d="M43.362,41.657l-11.667-11.71c2.59-3.119,4.15-7.129,4.15-11.506c0-9.935-8.024-17.987-17.923-17.987
	S0,8.507,0,18.441C0,28.375,8.024,36.43,17.923,36.43c4.361,0,8.356-1.567,11.464-4.166l11.668,11.71
	c0.318,0.32,0.736,0.479,1.154,0.479c0.417,0,0.835-0.159,1.153-0.479C44,43.334,44,42.297,43.362,41.657z M17.923,33.152
	c-8.082,0-14.658-6.6-14.658-14.711c0-8.112,6.576-14.711,14.658-14.711s14.658,6.599,14.658,14.711
	C32.581,26.553,26.005,33.152,17.923,33.152z"/>
</svg>
