<?xml version="1.0" encoding="utf-8"?>
<!-- Generator: Adobe Illustrator 16.0.0, SVG Export Plug-In . SVG Version: 6.00 Build 0)  -->
<!DOCTYPE svg PUBLIC "-//W3C//DTD SVG 1.1//EN" "http://www.w3.org/Graphics/SVG/1.1/DTD/svg11.dtd">
<svg version="1.1" id="图层_1" xmlns="http://www.w3.org/2000/svg" xmlns:xlink="http://www.w3.org/1999/xlink" x="0px" y="0px"
	 width="120px" height="80px" viewBox="0 0 120 80" enable-background="new 0 0 120 80" xml:space="preserve">
<g>
	<g>
		<path fill="#CFCFCF" d="M14.906,2.5C9.168,2.5,4.5,7.149,4.5,12.863c0,5.715,4.668,10.364,10.406,10.364
			s10.406-4.648,10.406-10.364C25.313,7.149,20.645,2.5,14.906,2.5z M14.906,16.318c-1.912,0-3.469-1.55-3.469-3.455
			c0-1.904,1.557-3.454,3.469-3.454s3.469,1.55,3.469,3.454C18.375,14.768,16.818,16.318,14.906,16.318z M14.906,30.136
			C9.168,30.136,4.5,34.785,4.5,40.5s4.668,10.363,10.406,10.363S25.313,46.215,25.313,40.5S20.645,30.136,14.906,30.136z
			 M14.906,43.955c-1.912,0-3.469-1.551-3.469-3.455c0-1.905,1.557-3.455,3.469-3.455s3.469,1.55,3.469,3.455
			C18.375,42.404,16.818,43.955,14.906,43.955z M14.906,57.772C9.168,57.772,4.5,62.422,4.5,68.137S9.168,78.5,14.906,78.5
			s10.406-4.648,10.406-10.363S20.645,57.772,14.906,57.772z M14.906,71.591c-1.912,0-3.469-1.55-3.469-3.454
			s1.557-3.455,3.469-3.455s3.469,1.551,3.469,3.455S16.818,71.591,14.906,71.591z M32.5,2.5v7h76v7h-76v7h83v-21H32.5z M32.5,37.5
			h76v6h-76v7h83v-20h-83V37.5z M32.5,64.5h76v7h-76v7h83v-21h-83V64.5z"/>
	</g>
</g>
</svg>
