<?xml version="1.0" encoding="utf-8"?>
<!-- Generator: Adobe Illustrator 16.0.0, SVG Export Plug-In . SVG Version: 6.00 Build 0)  -->
<!DOCTYPE svg PUBLIC "-//W3C//DTD SVG 1.1//EN" "http://www.w3.org/Graphics/SVG/1.1/DTD/svg11.dtd">
<svg version="1.1" id="cc-logo" xmlns="http://www.w3.org/2000/svg" xmlns:xlink="http://www.w3.org/1999/xlink" x="0px" y="0px"
	 width="100px" height="100px" viewBox="0 0 100 100" enable-background="new 0 0 100 100" xml:space="preserve">
<g>
	<g>
		<path fill="#D9D9D9" d="M12.903,28.769c-3.095,2.293-6.585,6.639-8.612,11.326C1.027,47.639,1.71,54.354,1.71,54.354h16.777
			c0,0-0.538-5.386,1.29-10.37c1.024-2.792,1.774-4.212,2.581-5.185c0.807-0.973,2.581-1.296,2.581-1.296h20.648l3.873-12.962
			H23.649C23.649,24.541,19.39,23.963,12.903,28.769z M0.419,64.723c0,0,0.169,2.086,1.291,3.889
			c0.859,1.383,2.581,2.594,2.581,2.594h33.554l2.581-11.666H0.419V64.723z M50.96,64.723c0,0,0.169,2.086,1.291,3.889
			c0.859,1.383,2.581,2.594,2.581,2.594h33.555l2.58-11.666H50.96V64.723z M74.19,24.541c0,0-4.26-0.577-10.746,4.229
			c-3.096,2.293-6.586,6.639-8.613,11.326c-3.264,7.544-2.581,14.259-2.581,14.259h16.778c0,0-0.539-5.387,1.289-10.371
			c1.024-2.792,1.774-4.212,2.582-5.185c0.807-0.973,2.58-1.296,2.58-1.296h20.647L100,24.542L74.19,24.541L74.19,24.541z"/>
	</g>
</g>
</svg>
