<?xml version="1.0" standalone="no"?>
<!DOCTYPE svg PUBLIC "-//W3C//DTD SVG 1.1//EN" "http://www.w3.org/Graphics/SVG/1.1/DTD/svg11.dtd" >
<svg xmlns="http://www.w3.org/2000/svg">
<metadata>Generated by IcoMoon</metadata>
<defs>
<font id="cc-font" horiz-adv-x="1024">
<font-face units-per-em="1024" ascent="960" descent="-64" />
<missing-glyph horiz-adv-x="1024" />
<glyph unicode="&#x20;" horiz-adv-x="512" d="" />
<glyph unicode="&#xe600;" glyph-name="arrow-right" d="M655.99 417.265l-427.165-428.942 48.564-51.328 427.165 428.942 4.807-5.111 48.679 51.48-481.255 508.849-48.679-51.443 427.884-452.448z" />
<glyph unicode="&#xe601;" glyph-name="arrow-up" d="M497.265 591.99l-428.981-427.126-51.29 48.526 428.942 427.165-5.111 4.807 51.48 48.679 508.849-481.255-51.48-48.679-452.411 427.884z" />
<glyph unicode="&#xe602;" glyph-name="calendar" d="M743.23 649.191c18.769 0 34.004 15.235 34.004 33.971v196.927c0 18.769-15.202 33.971-34.004 33.971-18.769 0-33.971-15.202-33.971-33.971v-196.927c0.033-18.735 15.235-33.971 33.971-33.971zM276.499 649.191c18.769 0 34.004 15.235 34.004 33.971v196.927c0 18.769-15.202 33.971-34.004 33.971-18.769 0-33.971-15.202-33.971-33.971v-196.927c0.033-18.735 15.235-33.971 33.971-33.971zM911.386 780.71h-66.675v-131.284c0-36.805-29.87-66.675-66.675-66.675h-66.675c-36.805 0-66.675 29.87-66.675 66.675v131.284h-266.705v-131.284c0-36.805-29.87-66.675-66.675-66.675h-66.675c-36.805 0-66.675 29.87-66.675 66.675v131.284h-66.675c-36.805 0-66.675-29.87-66.675-66.675v-666.758c0-36.805 29.87-66.675 66.675-66.675h800.111c36.805 0 66.675 29.87 66.675 66.675v666.758c0 36.805-29.87 66.675-66.675 66.675zM911.386 49.342h-802.178v464.665h802.178v-464.665zM395.015 296.61c-6.766-6.269-14.268-12.001-22.436-17.236s-15.902-10.302-23.103-15.335c-14.17-9.736-27.605-19.335-40.339-28.771s-23.837-19.771-33.272-30.905c-9.402-11.168-16.902-23.837-22.404-38.007s-8.267-30.838-8.267-50.008h242.5v57.609h-156.188c8.201 11.334 17.602 21.236 28.338 29.736 10.668 8.501 21.702 16.403 33.004 23.837 11.334 7.367 22.569 14.835 33.769 22.404 11.134 7.567 21.138 15.969 29.938 25.271 8.8 9.235 15.902 19.871 21.236 31.838 5.334 11.934 8.001 26.236 8.001 42.906 0 16.035-3.067 30.537-9.167 43.439-6.168 12.902-14.401 23.736-24.77 32.57-10.402 8.8-22.436 15.57-36.105 20.269s-28.071 7.068-43.173 7.068c-19.804 0-37.339-3.401-52.608-10.135-15.235-6.766-27.904-16.201-37.973-28.303-10.102-12.101-17.602-26.269-22.669-42.44-5.034-16.201-7.234-33.769-6.602-52.608h64.175c0 8.834 0.867 17.669 2.601 26.67 1.733 8.969 4.635 17.137 8.733 24.537 4.067 7.367 9.503 13.336 16.269 17.903s15.002 6.834 24.77 6.834c14.468 0 26.336-4.501 35.606-13.436s13.902-21.47 13.902-37.505c0-10.068-2.266-19.036-6.834-26.903s-10.202-15.002-16.936-21.303zM644.815 116.386h63.676v76.411h43.873v55.206h-43.873v198.66h-59.909l-143.453-192.526v-61.342h139.654v-76.411zM558.004 248.002l85.379 114.648h1.433v-114.648h-86.811z" />
<glyph unicode="&#xe603;" glyph-name="check" d="M879.026 692.674l-122.351 122.351-244.674-244.674-244.674 244.674-122.351-122.351 244.674-244.674-244.674-244.703 122.351-122.323 244.674 244.674 244.674-244.674 122.351 122.323-244.674 244.703z" />
<glyph unicode="&#xe604;" glyph-name="check-c" d="M508.462 916.881c-258.55 0-468.881-210.331-468.881-468.881s210.331-468.881 468.881-468.881 468.881 210.331 468.881 468.881-210.331 468.881-468.881 468.881zM508.462 46.131c-221.624 0-401.91 180.246-401.91 401.869s180.285 401.91 401.91 401.91 401.869-180.285 401.869-401.91-180.246-401.869-401.869-401.869zM653.856 637.468l-142.109-142.071-142.109 142.071-47.396-47.357 142.149-142.109-142.109-142.071 47.396-47.357 142.109 142.071 142.109-142.071 47.357 47.357-142.149 142.071 142.109 142.071-47.357 47.396z" />
<glyph unicode="&#xe605;" glyph-name="dianpu" d="M735.298 195.34h-475.958v259.619h-86.559v-346.178c0-47.802 38.728-86.53 86.53-86.53h475.988c47.802 0 86.53 38.728 86.53 86.53v346.178h-86.53v-259.619zM259.34 757.857h43.279v86.53h-43.279c-95.603 0-173.089-120.766-173.089-216.34v-86.559h173.089v216.369zM735.298 844.387h-43.279v-86.53h43.279v-216.369h173.089v86.559c0 95.574-77.515 216.34-173.089 216.34zM562.209 844.387h-129.81v-302.899h129.81v302.899z" />
<glyph unicode="&#xe606;" glyph-name="envelop" d="M42.705 831.026v-763.413h939.584v763.413h-939.584zM923.565 126.337h-822.136v645.964h822.136v-645.964zM185.316 228.664l162.167 270.307 164.985-82.507 164.985 82.507 162.167-270.307 50.356 30.213-159.847 266.431 147.808 73.905-26.279 52.529-339.22-169.595-339.161 169.625-26.279-52.529 147.808-73.905-159.847-266.431 50.356-30.243z" />
<glyph unicode="&#xe607;" glyph-name="eye" d="M494.36 735.937c1.637 0 3.212 0 4.82 0 217.045 0 402.051-120.903 422.238-276.692l60.133 7.789c-24.066 185.553-235.412 329.522-482.431 329.522-1.758 0-3.516 0-5.244 0-253.658-2.091-460.791-143.968-481.795-330.006l60.255-6.819c17.246 153.092 202.648 274.39 422.024 276.207zM921.356 405.901c-17.215-153.031-202.617-274.359-421.964-276.147h-4.82c-217.106 0-402.142 120.872-422.297 276.692l-60.133-7.82c24.035-185.522 235.412-329.492 482.492-329.492h5.244c253.688 2.060 460.76 143.968 481.764 330.037l-60.285 6.729zM254.403 430.815c1.091-132.602 109.841-240.443 242.413-240.443h2.060c64.74 0.546 125.419 26.278 170.852 72.439 45.404 46.161 70.105 107.294 69.59 172.035-1.061 132.602-109.841 240.473-244.443 240.473-133.724-1.121-241.595-110.811-240.473-244.504z" />
<glyph unicode="&#xe608;" glyph-name="eye-o" d="M494.36 735.937c1.637 0 3.212 0 4.82 0 217.045 0 402.051-120.903 422.238-276.692l60.133 7.789c-24.066 185.553-235.412 329.522-482.431 329.522-1.758 0-3.516 0-5.244 0-253.658-2.091-460.791-143.968-481.795-330.006l60.255-6.819c17.246 153.092 202.648 274.39 422.024 276.207zM921.356 405.901c-17.215-153.031-202.617-274.359-421.964-276.147h-4.82c-217.106 0-402.142 120.872-422.297 276.692l-60.133-7.82c24.035-185.522 235.412-329.492 482.492-329.492h5.244c253.688 2.060 460.76 143.968 481.764 330.037l-60.285 6.729zM254.403 430.815c1.091-132.602 109.841-240.443 242.413-240.443h2.060c64.74 0.575 125.419 26.278 170.852 72.439 45.404 46.161 70.105 107.294 69.59 172.035-1.061 132.602-109.841 240.473-244.443 240.473-133.724-1.121-241.595-110.811-240.473-244.504zM678.7 434.331c0.424-48.555-18.155-94.382-52.192-128.996-34.068-34.644-79.592-53.92-128.178-54.344l-1.546-30.309v30.309c-99.415 0-180.977 80.895-181.795 180.339-0.819 100.293 80.076 182.552 181.855 183.37 99.475 0 181.067-80.895 181.855-180.37zM496.33 493.464l-0.485 60.618c-66.861-0.546-120.812-55.404-120.267-122.267l60.618 0.516c-0.243 33.431 26.732 60.86 60.133 61.133z" />
<glyph unicode="&#xe609;" glyph-name="location" d="M325.741 604.122c0 103.115 83.445 186.725 186.359 186.725 102.947 0 186.393-83.611 186.393-186.725s-83.445-186.725-186.393-186.725c-102.915 0-186.359 83.611-186.359 186.725zM195.256 580.753c0-78.111 94.546-242.733 94.546-242.733l222.298-373.418 209.529 373.418c0 0 107.349 165.823 107.349 242.733 0 175.324-141.886 317.411-316.876 317.411s-316.844-142.086-316.844-317.411z" />
<glyph unicode="&#xe60a;" glyph-name="lock" d="M133.802 523.773v-181.855c0-200.556 163.185-363.71 363.71-363.71 200.556 0 363.71 163.154 363.71 363.71v181.855h-727.421zM800.604 341.918c0-167.125-135.936-303.092-303.092-303.092-167.125 0-303.092 135.967-303.092 303.092v121.237h606.183v-121.237zM497.512 129.754c49.889 0 90.503 40.372 90.927 90.17v61.376c0 50.132-40.796 90.927-90.927 90.927s-90.927-40.796-90.927-90.927v-61.376c0.424-49.798 41.068-90.17 90.927-90.17zM467.203 281.3c0 16.701 13.609 30.309 30.309 30.309 16.73 0 30.309-13.609 30.309-30.309v-60.618c0-16.701-13.578-30.309-30.309-30.309-16.701 0-30.309 13.609-30.309 30.309v60.618zM315.657 715.144c0 95.019 81.562 172.338 181.855 172.338s181.855-77.288 181.855-172.338v-130.753h60.618v130.753c0 128.451-108.779 232.956-242.474 232.956s-242.474-104.506-242.474-232.956v-130.753h60.618v130.753z" />
<glyph unicode="&#xe60b;" glyph-name="mobile" d="M184.889-49.778h654.222v196.324h-654.222v-196.324zM554.667 90.482c0-15.445-12.743-28.046-28.444-28.046s-28.444 12.601-28.444 28.046h56.889zM241.778 90.482h199.111c0-46.421 38.286-84.139 85.333-84.139s85.333 37.717 85.333 84.139h170.667v-84.139h-540.444v84.139zM184.889 960v-757.333h56.889v701.241h540.444v-701.241h56.889v757.333h-654.222zM497.778 847.815v-56.092h199.111v56.092h-199.111zM355.556 847.815v-56.092h56.889v56.092h-56.889z" />
<glyph unicode="&#xe60c;" glyph-name="tag" d="M514.74 792.729l-374.636 22.541 7.331-397.308 400.957-410.097 366.82 375.217-400.473 409.643zM202.598 441.927l-5.782 312.982 293.54-17.699 346.278-354.127-288.243-294.831-345.794 353.674zM430.446 607.898c-27.226 0-52.805-10.85-72.053-30.52-39.692-40.629-39.692-106.77 0.032-147.399 19.25-19.669 44.859-30.52 72.053-30.52s52.805 10.85 72.053 30.52c39.692 40.661 39.692 106.803 0 147.399-19.25 19.669-44.828 30.52-72.085 30.52zM463.26 470.187c-17.504-17.925-48.024-17.925-65.53 0-18.053 18.473-18.086 48.542 0 66.982 8.753 8.979 20.379 13.887 32.747 13.887 12.402 0 24.029-4.877 32.779-13.855 18.053-18.506 18.053-48.542 0-67.014z" />
<glyph unicode="&#xe60d;" glyph-name="times" d="M322.276 478.066l108.004-207.019c0 0 175.502 420.722 452.21 560.981-6.741-100.153-33.764-186.994 13.511-293.831-121.486-26.766-371.228-327.282-452.21-474.197-114.745 140.26-249.714 247.125-344.235 280.491l222.72 133.575z" />
<glyph unicode="&#xe60e;" glyph-name="times-c" d="M493.073 883.3c-250.885 0-454.228-203.343-454.228-454.228 0-250.847 203.343-454.228 454.228-454.228 250.847 0 454.228 203.381 454.228 454.228 0 250.885-203.381 454.228-454.228 454.228zM493.073 16.143c-228.060 0-412.931 184.87-412.931 412.931s184.87 412.931 412.931 412.931 412.931-184.87 412.931-412.931-184.87-412.931-412.931-412.931zM451.776 305.222c-39.709 82.441-82.593 115.676-82.593 123.851-40.009-63.593-123.891-82.593-123.891-82.593s128.014-105.457 206.483-165.148c212.275 288.319 309.707 289.042 309.707 289.042l-20.668 206.483c0 0-178.967-117.569-289.042-371.635z" />
<glyph unicode="&#xe60f;" glyph-name="trash" d="M587.463 176.27h50.347v345.828h-50.347v-345.828zM688.1 769.138v98.816l-100.636 49.38h-150.983l-100.636-49.408v-98.788h-150.955v-49.408h654.222v49.408h-151.012zM637.81 769.138h-251.648v98.816h251.648v-98.816zM184.889 48.128l61.298-69.461h529.721l63.204 61.781v629.874h-654.222v-622.194zM235.207 620.914h553.557v-592.839h-553.557v592.839zM386.19 176.27h50.318v345.828h-50.318v-345.828z" />
<glyph unicode="&#xe610;" glyph-name="user" d="M490.801 403.957c145.694 0 264.229 118.564 264.229 264.258s-118.534 264.258-264.229 264.258c-145.724 0-264.258-118.564-264.258-264.258s118.534-264.258 264.258-264.258zM490.801 873.749c113.308 0 205.505-92.197 205.505-205.534s-92.197-205.534-205.505-205.534c-113.338 0-205.534 92.197-205.534 205.534s92.197 205.534 205.534 205.534zM847.549 307.238l-163.165 65.272-21.816-54.525 130.485-52.177 23.812-214.167h-639.094l23.812 214.167 130.456 52.177-21.816 54.525-163.135-65.272-34.911-314.349h770.283l-34.911 314.349z" />
<glyph unicode="&#xe611;" glyph-name="user-p" d="M474.117 402.536c150.394 0 272.753 122.389 272.753 272.782 0 150.425-122.358 272.782-272.753 272.782-150.425 0-272.782-122.358-272.782-272.782 0-150.394 122.358-272.782 272.782-272.782zM474.117 887.483c116.963 0 212.134-95.171 212.134-212.164 0-116.963-95.171-212.164-212.134-212.164-116.994 0-212.164 95.201-212.164 212.164 0 116.994 95.171 212.164 212.164 212.164zM811.155 105.083l-0.455-66.257h-659.71l24.58 221.076 134.664 53.889-22.52 56.284-168.397-67.407-36.037-324.46h795.131c0 110.506 0 126.874 0 126.874h-67.256zM799.092 478.309h60.618v-303.092h-60.618v303.092zM677.855 357.073h303.092v-60.618h-303.092v60.618z" />
<glyph unicode="&#xe612;" glyph-name="edit" d="M775.096 102.932h-685.248v647.829h544.187l40.273 38.106h-624.759v-724.040h765.873v590.669l-40.326-38.106v-514.458zM452.621 426.886h-20.163v38.026l418.162 385.922-25.131 23.731-443.398-419.166-8.958-76.186h-11.178v-19.053h20.136v10.597l80.651 8.429 443.346 419.193-25.237 23.863-428.23-395.357zM906.088 941.29l-50.341-38.106 80.599-76.186 40.299 47.619-70.557 66.673z" />
<glyph unicode="&#xe613;" d="M988.769 26.297l-271.858 274.383c48.422 65.196 74.656 144.058 74.656 226.993 0 101.35-39.121 196.638-110.127 268.282-70.996 71.644-165.393 111.113-265.803 111.113-100.421 0-194.826-39.469-265.842-111.113-146.563-147.981-146.563-388.695-0.009-536.602 71.015-71.652 165.43-111.113 265.851-111.113 91.345 0 177.65 32.747 245.952 92.594l269.878-272.383 57.303 57.846zM207.097 317.197c-114.959 116.011-114.951 304.831 0.029 420.899 55.697 56.203 129.743 87.16 208.511 87.16 78.758 0 152.814-30.955 208.493-87.16 55.716-56.194 86.379-130.936 86.379-210.426 0-79.5-30.675-154.232-86.379-210.463-55.687-56.194-129.735-87.16-208.493-87.16-78.769-0.009-152.833 30.955-208.54 87.149z" />
<glyph unicode="&#xe614;" d="M491.306 315.744l-208.558-129.979 79.077 0.057-114.557-114.116 228.57 145.503-78.646-0.057 94.114 98.591z" />
<glyph unicode="&#xe615;" d="M519.464 996.233l-208.558-129.979 79.077 0.057-114.557-114.116 228.57 145.503-78.646-0.057 94.114 98.591z" />
<glyph unicode="&#xe616;" glyph-name="no-goods" horiz-adv-x="1536" d="M190.797 928c-73.446 0-133.197-59.507-133.197-132.646 0-73.152 59.75-132.659 133.197-132.659s133.197 59.494 133.197 132.659c0.013 73.139-59.738 132.646-133.197 132.646zM190.797 751.13c-24.474 0-44.403 19.84-44.403 44.224 0 24.371 19.93 44.211 44.403 44.211s44.403-19.84 44.403-44.211c0-24.384-19.93-44.224-44.403-44.224zM190.797 574.259c-73.446 0-133.197-59.507-133.197-132.659s59.75-132.646 133.197-132.646 133.21 59.494 133.21 132.646-59.75 132.659-133.21 132.659zM190.797 397.376c-24.474 0-44.403 19.853-44.403 44.224 0 24.384 19.93 44.224 44.403 44.224s44.403-19.84 44.403-44.224c0-24.371-19.93-44.224-44.403-44.224zM190.797 220.518c-73.446 0-133.197-59.52-133.197-132.672s59.75-132.646 133.197-132.646 133.197 59.494 133.197 132.646-59.738 132.672-133.197 132.672zM190.797 43.635c-24.474 0-44.403 19.84-44.403 44.211s19.93 44.224 44.403 44.224 44.403-19.853 44.403-44.224-19.93-44.211-44.403-44.211zM416 928v-89.6h972.8v-89.6h-972.8v-89.6h1062.4v268.8h-1062.4zM416 480h972.8v-76.8h-972.8v-89.6h1062.4v256h-1062.4v-89.6zM416 134.4h972.8v-89.6h-972.8v-89.6h1062.4v268.8h-1062.4v-89.6z" />
<glyph unicode="&#xe617;" glyph-name="no-coupon" horiz-adv-x="1934" d="M1905.778 316.826v-259.174c0-51.473-41.779-93.195-93.298-93.195h-256.569c12.88 0 23.324 10.445 23.324 23.302 0 12.868-10.445 23.302-23.324 23.302s-23.336-10.433-23.336-23.302c0-12.857 10.456-23.302 23.336-23.302h-1422.791c-51.53 0-93.298 41.722-93.298 93.195v256.262c77.289 0 139.935 62.578 139.935 139.776 0 77.21-62.646 139.787-139.935 139.787v256.262c0 51.473 41.768 93.195 93.298 93.195h1422.791c-12.88 0-23.336-10.433-23.336-23.29 0-12.868 10.456-23.29 23.336-23.29s23.324 10.433 23.324 23.29c0 12.857-10.445 23.29-23.324 23.29h256.569c51.519 0 93.298-41.722 93.298-93.195v-253.349c-77.301 0-139.947-62.589-139.947-139.787s62.646-139.776 139.947-139.776zM1555.911 849.738c-12.88 0-23.336-10.433-23.336-23.29s10.456-23.29 23.336-23.29 23.324 10.433 23.324 23.29-10.445 23.29-23.324 23.29zM1555.911 756.554c-12.88 0-23.336-10.433-23.336-23.302s10.456-23.29 23.336-23.29 23.324 10.433 23.324 23.29-10.445 23.302-23.324 23.302zM1555.911 663.37c-12.88 0-23.336-10.433-23.336-23.302 0-12.857 10.456-23.302 23.336-23.302s23.324 10.433 23.324 23.302c0 12.868-10.445 23.302-23.324 23.302zM1555.911 570.175c-12.88 0-23.336-10.433-23.336-23.29 0-12.868 10.456-23.302 23.336-23.302s23.324 10.433 23.324 23.302c0 12.857-10.445 23.29-23.324 23.29zM1555.911 476.979c-12.88 0-23.336-10.433-23.336-23.29s10.456-23.29 23.336-23.29 23.324 10.422 23.324 23.29-10.445 23.29-23.324 23.29zM1555.911 383.795c-12.88 0-23.336-10.433-23.336-23.302 0-12.857 10.456-23.302 23.336-23.302s23.324 10.445 23.324 23.302c0 12.868-10.445 23.302-23.324 23.302zM1555.911 290.611c-12.88 0-23.336-10.433-23.336-23.302s10.456-23.29 23.336-23.29 23.324 10.422 23.324 23.29-10.445 23.302-23.324 23.302zM1555.911 197.427c-12.88 0-23.336-10.433-23.336-23.302s10.456-23.302 23.336-23.302 23.324 10.433 23.324 23.302-10.445 23.302-23.324 23.302zM1555.911 104.232c-12.88 0-23.336-10.433-23.336-23.302s10.456-23.29 23.336-23.29 23.324 10.422 23.324 23.29-10.445 23.302-23.324 23.302z" />
<glyph unicode="&#xe618;" glyph-name="shopping-cart" d="M0 844.8h358.4l51.2-460.8h460.8l51.2 358.4h102.4l-51.2-460.8h-665.6l-51.2 460.8h-256v102.4zM384 179.2c42.419 0 76.8-34.381 76.8-76.8 0-42.394-34.381-76.8-76.8-76.8s-76.8 34.406-76.8 76.8c0 42.419 34.381 76.8 76.8 76.8zM896 179.2c42.394 0 76.8-34.381 76.8-76.8 0-42.394-34.406-76.8-76.8-76.8s-76.8 34.406-76.8 76.8c0 42.419 34.406 76.8 76.8 76.8zM550.4 793.6h128v-128h-128v128zM704 563.2h128v-128h-128v128zM627.2 921.6h128v-128h-128v128z" />
<glyph unicode="&#xe619;" glyph-name="cc" d="M132.127 665.405c-31.693-23.48-67.43-67.983-88.187-115.978-33.423-77.251-26.429-146.012-26.429-146.012h171.796c0 0-5.509 55.153 13.21 106.189 10.486 28.59 18.166 43.131 26.429 53.094s26.429 13.271 26.429 13.271h211.436l39.66 132.731h-264.305c0 0-43.612 5.919-110.039-43.295zM4.291 297.236c0 0 1.731-21.361 13.22-39.823 8.796-14.162 26.429-26.563 26.429-26.563h343.593l26.429 119.46h-409.672v-53.074zM521.83 297.236c0 0 1.731-21.361 13.22-39.823 8.796-14.162 26.429-26.563 26.429-26.563h343.603l26.419 119.46h-409.672v-53.074zM759.706 708.7c0 0-43.622 5.908-110.039-43.305-31.703-23.48-67.441-67.983-88.197-115.978-33.423-77.251-26.429-146.012-26.429-146.012h171.807c0 0-5.519 55.163 13.199 106.199 10.486 28.59 18.166 43.131 26.44 53.094 8.264 9.964 26.419 13.271 26.419 13.271h211.425l39.67 132.721-264.294 0.010z" />
</font>
</defs>
</svg>
